<svg width="16" height="16" viewBox="0 0 16 16" fill="none" xmlns="http://www.w3.org/2000/svg">
<g clip-path="url(#clip0)">
<path d="M6.58254 7.51988C6.91457 7.35287 7.16559 7.16685 7.3376 6.96584C7.64363 6.60381 7.79464 6.12377 7.79464 5.52872C7.79464 4.94967 7.64363 4.45463 7.3416 4.0396C6.83756 3.36354 5.98449 3.01751 4.77839 2.99951H0V12.7533H4.45537C4.95741 12.7533 5.42245 12.7103 5.85248 12.6223C6.28252 12.5333 6.65455 12.3703 6.96957 12.1323C7.2496 11.9252 7.48361 11.6682 7.66963 11.3652C7.96365 10.9072 8.11067 10.3881 8.11067 9.81007C8.11067 9.25002 7.98166 8.77298 7.72563 8.38095C7.46661 7.98892 7.08658 7.7019 6.58254 7.51988ZM1.97116 4.69365H4.12334C4.59638 4.69365 4.98641 4.74465 5.29243 4.84566C5.64646 4.99267 5.82348 5.2917 5.82348 5.74774C5.82348 6.15677 5.68847 6.44279 5.42145 6.60381C5.15242 6.76482 4.80339 6.84583 4.37536 6.84583H1.97116V4.69365ZM5.37444 10.8892C5.13642 11.0042 4.80139 11.0612 4.37236 11.0612H1.97116V8.45996H4.40536C4.8294 8.46296 5.15942 8.51896 5.39544 8.62397C5.81548 8.81399 6.0245 9.16202 6.0245 9.67106C6.0245 10.2711 5.80848 10.6751 5.37444 10.8892Z" fill="white"/>
<path d="M14.4622 3.45459H10.2249V4.66869H14.4622V3.45459Z" fill="white"/>
<path d="M15.9343 8.2461C15.8462 7.68105 15.6522 7.18401 15.3502 6.75497C15.0192 6.26893 14.5991 5.91291 14.0881 5.68789C13.5791 5.46187 13.006 5.34886 12.368 5.34986C11.2969 5.34986 10.4268 5.68489 9.75376 6.34994C9.0827 7.017 8.74667 7.97607 8.74667 9.22617C8.74667 10.5593 9.1177 11.5224 9.86376 12.1134C10.6068 12.7055 11.4649 13.0005 12.439 13.0005C13.6181 13.0005 14.5351 12.6495 15.1902 11.9494C15.6092 11.5074 15.8462 11.0723 15.8983 10.6453H13.9461C13.8331 10.8563 13.7021 11.0213 13.5521 11.1413C13.28 11.3613 12.926 11.4714 12.492 11.4714C12.0789 11.4714 11.7289 11.3803 11.4369 11.1993C10.9549 10.9093 10.7028 10.4013 10.6708 9.67821H15.9983C16.0063 9.05516 15.9863 8.57612 15.9343 8.2461ZM10.7188 8.43311C10.7888 7.96407 10.9589 7.59204 11.2289 7.31702C11.4989 7.043 11.8809 6.90499 12.37 6.90399C12.821 6.90399 13.198 7.033 13.5051 7.29202C13.8081 7.55304 13.9791 7.93207 14.0141 8.43311H10.7188Z" fill="white"/>
</g>
<defs>
<clipPath id="clip0">
<rect width="16" height="16" fill="white"/>
</clipPath>
</defs>
</svg>
