<svg width="16" height="16" viewBox="0 0 16 16" fill="none" xmlns="http://www.w3.org/2000/svg">
<path d="M8 0C3.589 0 0 3.589 0 8C0 12.411 3.589 16 8 16C12.411 16 16 12.411 16 8C16 3.589 12.411 0 8 0ZM8 15C4.14 15 1 11.859 1 8C1 4.14 4.14 1 8 1C11.859 1 15 4.14 15 8C15 11.859 11.859 15 8 15Z" fill="white"/>
<path d="M7.99999 2C7.57999 2 7.16999 2.044 6.77399 2.126C7.50199 3.158 8.16299 4.232 8.74499 5.345C9.84599 4.832 10.882 4.17 11.828 3.38C10.789 2.518 9.45499 2 7.99999 2Z" fill="white"/>
<path d="M12.541 4.08594C11.512 4.95294 10.38 5.67194 9.17798 6.23394C9.44098 6.78194 9.68498 7.33694 9.91098 7.90094C11.239 7.62794 12.621 7.60294 13.991 7.82994C13.951 6.39994 13.413 5.09594 12.541 4.08594Z" fill="white"/>
<path d="M5.77003 2.43311C3.96903 3.15511 2.60303 4.72311 2.15903 6.64811C4.10103 6.73111 6.02303 6.40711 7.81203 5.72411C7.21103 4.58311 6.53003 3.48311 5.77003 2.43311Z" fill="white"/>
<path d="M8.26 6.62891C6.528 7.30391 4.678 7.6719 2.797 7.6719C2.538 7.6719 2.278 7.6559 2.018 7.6419C2.011 7.7609 2 7.8789 2 7.9999C2 9.4729 2.533 10.8209 3.414 11.8649C4.855 10.0759 6.792 8.7939 8.936 8.1499C8.727 7.6359 8.501 7.12991 8.26 6.62891Z" fill="white"/>
<path d="M10.278 8.84786C10.755 10.1779 11.129 11.5449 11.403 12.9389C12.755 12.0059 13.699 10.5329 13.936 8.83086C12.71 8.61386 11.471 8.62386 10.278 8.84786Z" fill="white"/>
<path d="M9.29596 9.08008C7.27996 9.66908 5.45896 10.8791 4.12396 12.5761C5.16996 13.4631 6.52096 14.0001 7.99996 14.0001C8.88796 14.0001 9.72896 13.8021 10.487 13.4551C10.212 11.9611 9.81196 10.4991 9.29596 9.08008Z" fill="white"/>
</svg>
