<svg width="180" height="34" viewBox="0 0 180 34" fill="none" xmlns="http://www.w3.org/2000/svg">
<path fill-rule="evenodd" clip-rule="evenodd" d="M16 32C24.8366 32 32 24.8366 32 16C32 7.16344 24.8366 0 16 0C7.16344 0 0 7.16344 0 16C0 24.8366 7.16344 32 16 32ZM12.8322 19.1678L16 30L19.1678 19.1678L30 16L19.1678 12.8322L16 2L12.8322 12.8322L2 16L12.8322 19.1678Z" fill="white"/>
<path d="M54.272 6.328H42.432V27H54.272C63.2 27 66.432 22.072 66.432 16.6C66.432 11.128 63.616 6.328 54.272 6.328ZM54.176 23.32H46.72V10.008H54.176C60.32 10.008 62.08 13.08 62.08 16.6C62.08 20.12 60.32 23.32 54.176 23.32ZM93.373 11.128L88.861 22.36L85.021 11.128H80.221L76.221 22.36L71.869 11.128H67.325L74.141 27.032H78.045L82.589 15.928L87.005 27.032H90.941L97.917 11.128H93.373ZM113.497 11.128V15.832C112.633 12.824 110.393 10.744 106.297 10.744C101.305 10.744 97.5607 14.072 97.5607 19.096C97.5607 24.056 101.305 27.384 106.073 27.384C110.297 27.384 112.633 24.792 113.497 21.912V22.904C113.497 24.824 113.785 27 113.785 27H117.657V11.128H113.497ZM107.417 24.152C104.025 24.152 101.817 22.136 101.817 19.096C101.817 16.024 103.833 13.976 107.417 13.976C111.129 13.976 113.497 15.832 113.497 19.096C113.497 22.136 111.161 24.152 107.417 24.152ZM133.711 11.128L128.367 22.776L123.119 11.128H118.703L126.319 26.872L122.831 33.4H127.119L138.127 11.128H133.711ZM150.725 10.744C146.757 10.744 144.165 13.112 143.333 15.704V11.128H139.173V27H143.333V17.56C144.037 15.768 146.373 14.104 149.253 14.104C152.165 14.104 153.413 15.352 153.413 18.04V27H157.573V17.304C157.573 12.792 154.629 10.744 150.725 10.744ZM174.578 21.72C174.066 23.224 172.178 24.216 169.522 24.216C165.938 24.216 163.794 22.328 163.506 19.704H178.674C178.931 13.656 175.73 10.744 169.522 10.744C163.346 10.744 159.314 13.88 159.314 19.096C159.314 24.376 163.538 27.384 169.618 27.384C175.026 27.384 178.035 25.016 178.578 21.72H174.578ZM169.298 13.912C172.434 13.912 174.29 15.256 174.546 17.432H163.698C164.242 15.416 166.226 13.912 169.298 13.912Z" fill="white"/>
</svg>
